#N canvas 602 228 463 601 12;
#X declare -lib Gem;
#X obj 231 37 declare -lib Gem;
#X obj 62 60 gemwin;
#X msg 62 27 create;
#X obj 142 145 gemhead;
#X obj 142 169 gemframebuffer;
#X obj 142 193 translateXYZ 0 0 -3;
#X obj 142 217 t a a;
#X obj 142 241 depth;
#X obj 142 265 translateXYZ 0 0 0;
#X obj 142 289 t a b;
#X obj 143 113 tgl 15 0 empty empty empty 17 7 0 10 -262144 -1 -1 0
1;
#X connect 2 0 1 0;
#X connect 3 0 4 0;
#X connect 4 0 5 0;
#X connect 5 0 6 0;
#X connect 6 0 7 0;
#X connect 7 0 8 0;
#X connect 8 0 9 0;
#X connect 10 0 3 0;
