#N canvas -1281 238 1010 677 12;
#X obj 36 371 osc~;
#X obj 832 605 dac~;
#X floatatom 36 289 5 0 0 0 - - -;
#X obj 832 573 *~;
#X obj 924 428 vsl 15 128 0 1 0 0 empty empty empty 0 -9 0 10 -262144
-1 -1 400 1;
#X obj 37 493 s~ aud_sig;
#X obj 831 527 r~ aud_sig;
#X obj 73 371 osc~;
#X obj 73 342 * 2;
#X obj 112 371 osc~;
#X floatatom 130 310 5 0 0 0 - - -;
#X obj 112 342 *;
#X obj 69 70 bng 15 250 50 0 empty empty empty 17 7 0 10 -262144 -1
-1;
#X obj 69 5 tgl 15 0 empty empty empty 17 7 0 10 -262144 -1 -1 1 1
;
#X obj 36 100 f;
#X obj 92 101 + 1;
#X floatatom 36 133 5 0 0 0 - - -;
#X obj 36 259 line 0;
#X obj 69 38 metro 2000;
#X floatatom 924 569 5 0 0 0 - - -;
#X msg 36 228 300 2000;
#X msg 112 228 260 2000;
#X obj 36 168 % 4;
#X msg 186 228 342 2000;
#X msg 262 228 230 2000;
#X obj 36 202 sel 0 1 2;
#X connect 0 0 5 0;
#X connect 2 0 0 0;
#X connect 2 0 8 0;
#X connect 2 0 11 0;
#X connect 3 0 1 0;
#X connect 4 0 3 1;
#X connect 4 0 19 0;
#X connect 6 0 3 0;
#X connect 7 0 5 0;
#X connect 8 0 7 0;
#X connect 9 0 5 0;
#X connect 10 0 11 1;
#X connect 11 0 9 0;
#X connect 12 0 14 0;
#X connect 13 0 14 0;
#X connect 13 0 18 0;
#X connect 14 0 15 0;
#X connect 14 0 16 0;
#X connect 15 0 14 1;
#X connect 16 0 22 0;
#X connect 17 0 2 0;
#X connect 18 0 12 0;
#X connect 20 0 17 0;
#X connect 21 0 17 0;
#X connect 22 0 25 0;
#X connect 23 0 17 0;
#X connect 24 0 17 0;
#X connect 25 0 20 0;
#X connect 25 1 21 0;
#X connect 25 2 23 0;
#X connect 25 3 24 0;
