#N canvas 860 226 663 591 12;
#X obj 521 82 metro_bpm;
#X obj 521 61 tgl 15 0 empty empty empty 17 7 0 10 -262144 -1 -1 0
1;
#X obj 581 11 loadbang;
#X msg 581 35 120;
#X floatatom 581 59 5 0 0 0 - - -;
#X obj 521 108 bng 15 250 50 0 empty empty empty 17 7 0 10 -262144
-1 -1;
#X floatatom 581 107 5 0 0 0 - - -;
#X obj 444 131 counter;
#X obj 444 156 s beat_num;
#X obj 75 99 time_signature;
#X obj 581 130 s metro_ms;
#X obj 521 131 s beat;
#X obj 75 32 r beat;
#X obj 134 32 r metro_ms;
#X msg 170 66 11 8;
#X obj 75 130 bng 15 250 50 0 empty empty empty 17 7 0 10 -262144 -1
-1;
#X obj 74 194 hradio 15 1 0 11 empty empty empty 0 -8 0 10 -262144
-1 -1 8;
#X obj 226 97 time_signature;
#X obj 226 30 r beat;
#X obj 285 30 r metro_ms;
#X obj 226 128 bng 15 250 50 0 empty empty empty 17 7 0 10 -262144
-1 -1;
#X obj 74 215 hradio 15 1 0 11 empty empty empty 0 -8 0 10 -262144
-1 -1 8;
#X msg 321 64 7 8;
#X connect 0 0 5 0;
#X connect 0 1 6 0;
#X connect 1 0 0 0;
#X connect 2 0 3 0;
#X connect 3 0 4 0;
#X connect 4 0 0 1;
#X connect 5 0 7 0;
#X connect 5 0 11 0;
#X connect 6 0 10 0;
#X connect 7 0 8 0;
#X connect 9 0 15 0;
#X connect 9 1 16 0;
#X connect 12 0 9 0;
#X connect 13 0 9 1;
#X connect 14 0 9 2;
#X connect 17 0 20 0;
#X connect 17 1 21 0;
#X connect 18 0 17 0;
#X connect 19 0 17 1;
#X connect 22 0 17 2;
