#N canvas -895 221 806 582 12;
#X obj 113 187 metro_bpm;
#X obj 113 166 tgl 15 0 empty empty empty 17 7 0 10 -262144 -1 -1 0
1;
#X obj 173 116 loadbang;
#X msg 173 140 120;
#X floatatom 173 164 5 0 0 0 - - -;
#X obj 113 213 bng 15 250 50 0 empty empty empty 17 7 0 10 -262144
-1 -1;
#X floatatom 173 212 5 0 0 0 - - -;
#X obj 173 235 s metro_ms;
#X obj 113 236 s beat;
#X obj 94 272 f;
#X floatatom 94 301 5 0 0 0 - - -;
#X obj 142 272 + 1;
#X obj 28 228 s power;
#X obj 94 379 s measure;
#X floatatom 94 352 5 0 0 0 - - -;
#X obj 94 328 / 8;
#N canvas 768 238 428 357 osc-controller 0;
#X msg 41 159 port \$1;
#X floatatom 41 135 10 0 25000 0 - - -;
#X obj 41 58 loadbang;
#X obj 41 183 iemnet/udpreceive 8000;
#X obj 41 207 osc/unpackOSC;
#X text 87 83 OSC Receive Port;
#X obj 41 237 outlet;
#X msg 215 159 port \$1;
#X floatatom 215 135 10 0 25000 0 - - -;
#X obj 215 183 iemnet/udpreceive 8000;
#X obj 215 207 osc/unpackOSC;
#X text 261 83 OSC Receive Port;
#X obj 215 237 outlet;
#X msg 41 82 8000;
#X msg 215 82 8001;
#X connect 0 0 3 0;
#X connect 1 0 0 0;
#X connect 2 0 13 0;
#X connect 2 0 14 0;
#X connect 3 0 4 0;
#X connect 4 0 6 0;
#X connect 7 0 9 0;
#X connect 8 0 7 0;
#X connect 9 0 10 0;
#X connect 10 0 12 0;
#X connect 13 0 1 0;
#X connect 14 0 8 0;
#X restore 200 19 pd osc-controller;
#X floatatom 316 107 5 0 0 0 - - -;
#X obj 496 115 s reset_bpm;
#X obj 212 145 r reset_bpm;
#X obj 496 90 bng 15 250 50 0 empty empty empty 17 7 0 10 -262144 -1
-1;
#X obj 526 306 time_signature;
#X obj 573 230 r metro_ms;
#X obj 526 337 bng 15 250 50 0 empty empty empty 17 7 0 10 -262144
-1 -1;
#X obj 579 337 hradio 15 1 0 12 empty empty empty 0 -8 0 10 -262144
-1 -1 6;
#X obj 526 280 r power;
#X msg 621 280 \$1 8;
#X obj 316 129 s hi_ts;
#X obj 621 252 r hi_ts;
#X obj 274 307 time_signature;
#X obj 321 231 r metro_ms;
#X obj 274 338 bng 15 250 50 0 empty empty empty 17 7 0 10 -262144
-1 -1;
#X obj 328 338 hradio 15 1 0 12 empty empty empty 0 -8 0 10 -262144
-1 -1 0;
#X obj 274 281 r power;
#X msg 369 281 \$1 8;
#X obj 369 253 r low_ts;
#X floatatom 173 85 5 0 0 0 - - -;
#X obj 113 54 route /power /metro;
#X obj 669 307 bng 15 250 50 0 empty empty empty 17 7 0 10 -262144
-1 -1;
#X obj 401 14 MIDI_DrumMachine_JeremyJazz;
#X obj 316 83 change;
#X floatatom 406 107 5 0 0 0 - - -;
#X obj 406 83 change;
#X obj 406 129 s low_ts;
#X obj 316 58 route /drum_hi_ts /drum_low_ts /set_bpm /groove_seed
;
#X obj 586 88 s seed;
#N canvas 601 115 466 325 Glucose_Seed 0;
#X obj 19 15 inlet;
#X obj 19 237 s jj-sbass;
#X obj 101 237 s jj-hbass;
#X obj 94 39 t b f;
#X obj 94 63 13;
#X obj 94 88 -;
#X obj 19 124 +;
#X obj 198 17 inlet;
#X obj 273 41 t b f;
#X obj 273 65 13;
#X obj 273 90 -;
#X obj 198 126 +;
#X obj 196 216 s jj-snare;
#X obj 293 240 s jj-hihat;
#X obj 19 183 sel 1 2 5 6 9 10;
#X obj 19 154 + 1;
#X obj 198 164 sel 1 3 6 11;
#X obj 293 197 sel 2 3 4 7 8 11 12;
#X obj 94 15 r low_ts;
#X obj 273 17 r hi_ts;
#X connect 0 0 6 0;
#X connect 3 0 4 0;
#X connect 3 1 5 1;
#X connect 4 0 5 0;
#X connect 5 0 6 1;
#X connect 6 0 15 0;
#X connect 7 0 11 0;
#X connect 8 0 9 0;
#X connect 8 1 10 1;
#X connect 9 0 10 0;
#X connect 10 0 11 1;
#X connect 11 0 16 0;
#X connect 14 0 1 0;
#X connect 14 1 2 0;
#X connect 14 2 1 0;
#X connect 14 3 2 0;
#X connect 14 4 1 0;
#X connect 14 5 2 0;
#X connect 15 0 14 0;
#X connect 16 0 12 0;
#X connect 16 1 12 0;
#X connect 16 2 12 0;
#X connect 16 3 12 0;
#X connect 16 4 17 0;
#X connect 17 0 13 0;
#X connect 17 1 13 0;
#X connect 17 2 13 0;
#X connect 17 3 13 0;
#X connect 17 4 13 0;
#X connect 17 5 13 0;
#X connect 17 6 13 0;
#X connect 17 7 13 0;
#X connect 18 0 3 0;
#X connect 19 0 8 0;
#X restore 157 476 pd Glucose_Seed;
#N canvas 1093 182 463 328 Sucrose_Seed 0;
#X obj 19 15 inlet;
#X obj 19 253 s jj-sbass;
#X obj 104 253 s jj-hbass;
#X obj 94 15 r hi_ts;
#X obj 94 39 t b f;
#X obj 94 63 13;
#X obj 94 88 -;
#X obj 19 124 +;
#X obj 256 27 inlet;
#X obj 331 51 t b f;
#X obj 331 75 13;
#X obj 331 100 -;
#X obj 256 136 +;
#X obj 331 27 r low_ts;
#X obj 256 252 s jj-snare;
#X obj 338 252 s jj-hihat;
#X obj 19 151 + 1;
#X obj 19 192 sel 1 2 5 6 13 14;
#X obj 256 190 sel 1 4 5 7 9 11 13;
#X obj 256 161 + 1;
#X connect 0 0 7 0;
#X connect 3 0 4 0;
#X connect 4 0 5 0;
#X connect 4 1 6 1;
#X connect 5 0 6 0;
#X connect 6 0 7 1;
#X connect 7 0 16 0;
#X connect 8 0 12 0;
#X connect 9 0 10 0;
#X connect 9 1 11 1;
#X connect 10 0 11 0;
#X connect 11 0 12 1;
#X connect 12 0 19 0;
#X connect 13 0 9 0;
#X connect 16 0 17 0;
#X connect 17 0 1 0;
#X connect 17 1 2 0;
#X connect 17 2 1 0;
#X connect 17 3 2 0;
#X connect 17 4 1 0;
#X connect 17 5 2 0;
#X connect 18 0 15 0;
#X connect 18 1 15 0;
#X connect 18 2 14 0;
#X connect 18 3 15 0;
#X connect 18 4 15 0;
#X connect 18 5 14 0;
#X connect 18 6 14 0;
#X connect 19 0 18 0;
#X restore 332 497 pd Sucrose_Seed;
#N canvas -951 204 463 328 CocaCola_Seed 0;
#X obj 19 15 inlet;
#X obj 19 253 s jj-sbass;
#X obj 104 253 s jj-hbass;
#X obj 94 15 r hi_ts;
#X obj 94 39 t b f;
#X obj 94 63 13;
#X obj 94 88 -;
#X obj 19 124 +;
#X obj 256 27 inlet;
#X obj 331 51 t b f;
#X obj 331 75 13;
#X obj 331 100 -;
#X obj 256 136 +;
#X obj 331 27 r low_ts;
#X obj 256 215 s jj-snare;
#X obj 338 272 s jj-hihat;
#X obj 19 151 + 1;
#X obj 256 161 + 1;
#X obj 19 192 sel 1 2 5 6 12 13 14 15;
#X obj 338 243 sel 1 3 7 9;
#X obj 256 188 sel 5 11 13;
#X connect 0 0 7 0;
#X connect 3 0 4 0;
#X connect 4 0 5 0;
#X connect 4 1 6 1;
#X connect 5 0 6 0;
#X connect 6 0 7 1;
#X connect 7 0 16 0;
#X connect 8 0 12 0;
#X connect 9 0 10 0;
#X connect 9 1 11 1;
#X connect 10 0 11 0;
#X connect 11 0 12 1;
#X connect 12 0 17 0;
#X connect 13 0 9 0;
#X connect 16 0 18 0;
#X connect 17 0 20 0;
#X connect 18 0 1 0;
#X connect 18 1 2 0;
#X connect 18 2 1 0;
#X connect 18 3 2 0;
#X connect 18 4 1 0;
#X connect 18 5 2 0;
#X connect 18 6 1 0;
#X connect 18 7 2 0;
#X connect 19 0 15 0;
#X connect 19 1 15 0;
#X connect 19 2 15 0;
#X connect 19 3 15 0;
#X connect 20 0 14 0;
#X connect 20 1 14 0;
#X connect 20 2 14 0;
#X connect 20 3 19 0;
#X restore 577 472 pd CocaCola_Seed;
#N canvas 1093 182 463 328 MildSucrose_Seed 0;
#X obj 19 15 inlet;
#X obj 19 253 s jj-sbass;
#X obj 104 253 s jj-hbass;
#X obj 94 15 r hi_ts;
#X obj 94 39 t b f;
#X obj 94 63 13;
#X obj 94 88 -;
#X obj 19 124 +;
#X obj 256 27 inlet;
#X obj 331 51 t b f;
#X obj 331 75 13;
#X obj 331 100 -;
#X obj 256 136 +;
#X obj 331 27 r low_ts;
#X obj 256 252 s jj-snare;
#X obj 338 252 s jj-hihat;
#X obj 19 151 + 1;
#X obj 256 190 sel 1 4 5 7 9 11 13;
#X obj 256 161 + 1;
#X obj 19 192 sel 1 5 15;
#X connect 0 0 7 0;
#X connect 3 0 4 0;
#X connect 4 0 5 0;
#X connect 4 1 6 1;
#X connect 5 0 6 0;
#X connect 6 0 7 1;
#X connect 7 0 16 0;
#X connect 8 0 12 0;
#X connect 9 0 10 0;
#X connect 9 1 11 1;
#X connect 10 0 11 0;
#X connect 11 0 12 1;
#X connect 12 0 18 0;
#X connect 13 0 9 0;
#X connect 16 0 19 0;
#X connect 17 0 15 0;
#X connect 17 1 15 0;
#X connect 17 2 14 0;
#X connect 17 3 15 0;
#X connect 17 4 15 0;
#X connect 17 5 14 0;
#X connect 17 6 14 0;
#X connect 18 0 17 0;
#X connect 19 0 1 0;
#X connect 19 1 2 0;
#X connect 19 2 1 0;
#X restore 454 411 pd MildSucrose_Seed;
#X connect 0 0 5 0;
#X connect 0 1 6 0;
#X connect 1 0 0 0;
#X connect 1 0 9 1;
#X connect 1 0 12 0;
#X connect 2 0 3 0;
#X connect 3 0 4 0;
#X connect 4 0 0 1;
#X connect 5 0 8 0;
#X connect 5 0 9 0;
#X connect 6 0 7 0;
#X connect 9 0 11 0;
#X connect 9 0 10 0;
#X connect 10 0 15 0;
#X connect 11 0 9 1;
#X connect 14 0 13 0;
#X connect 15 0 14 0;
#X connect 16 0 37 0;
#X connect 16 1 44 0;
#X connect 17 0 27 0;
#X connect 19 0 4 0;
#X connect 20 0 18 0;
#X connect 21 0 23 0;
#X connect 21 1 24 0;
#X connect 21 1 49 1;
#X connect 22 0 21 1;
#X connect 25 0 21 0;
#X connect 26 0 21 2;
#X connect 26 0 38 0;
#X connect 28 0 26 0;
#X connect 29 0 31 0;
#X connect 29 1 32 0;
#X connect 29 1 49 0;
#X connect 30 0 29 1;
#X connect 33 0 29 0;
#X connect 34 0 29 2;
#X connect 35 0 34 0;
#X connect 36 0 4 0;
#X connect 37 0 1 0;
#X connect 37 1 36 0;
#X connect 40 0 17 0;
#X connect 41 0 43 0;
#X connect 42 0 41 0;
#X connect 44 0 40 0;
#X connect 44 1 42 0;
#X connect 44 2 20 0;
#X connect 44 3 45 0;
