#N canvas 860 226 663 591 12;
#X obj 521 82 metro_bpm;
#X obj 521 61 tgl 15 0 empty empty empty 17 7 0 10 -262144 -1 -1 0
1;
#X obj 581 11 loadbang;
#X msg 581 35 120;
#X floatatom 581 59 5 0 0 0 - - -;
#X obj 521 108 bng 15 250 50 0 empty empty empty 17 7 0 10 -262144
-1 -1;
#X floatatom 581 107 5 0 0 0 - - -;
#X obj 75 99 time_signature;
#X obj 581 130 s metro_ms;
#X obj 521 131 s beat;
#X obj 134 32 r metro_ms;
#X msg 170 66 11 8;
#X obj 75 130 bng 15 250 50 0 empty empty empty 17 7 0 10 -262144 -1
-1;
#X obj 74 194 hradio 15 1 0 11 empty empty empty 0 -8 0 10 -262144
-1 -1 9;
#X obj 226 97 time_signature;
#X obj 285 30 r metro_ms;
#X obj 226 128 bng 15 250 50 0 empty empty empty 17 7 0 10 -262144
-1 -1;
#X obj 74 215 hradio 15 1 0 11 empty empty empty 0 -8 0 10 -262144
-1 -1 5;
#X msg 321 64 7 8;
#X obj 502 167 f;
#X floatatom 502 196 5 0 0 0 - - -;
#X obj 550 167 + 1;
#X obj 436 123 s power;
#X obj 75 32 r power;
#X obj 226 30 r power;
#X obj 502 303 s measure;
#X floatatom 502 247 5 0 0 0 - - -;
#X obj 502 223 / 8;
#X connect 0 0 5 0;
#X connect 0 1 6 0;
#X connect 1 0 0 0;
#X connect 1 0 19 1;
#X connect 1 0 22 0;
#X connect 2 0 3 0;
#X connect 3 0 4 0;
#X connect 4 0 0 1;
#X connect 5 0 9 0;
#X connect 5 0 19 0;
#X connect 6 0 8 0;
#X connect 7 0 12 0;
#X connect 7 1 13 0;
#X connect 10 0 7 1;
#X connect 11 0 7 2;
#X connect 14 0 16 0;
#X connect 14 1 17 0;
#X connect 15 0 14 1;
#X connect 18 0 14 2;
#X connect 19 0 21 0;
#X connect 19 0 20 0;
#X connect 20 0 27 0;
#X connect 21 0 19 1;
#X connect 23 0 7 0;
#X connect 24 0 14 0;
#X connect 26 0 25 0;
#X connect 27 0 26 0;
