#N canvas -1012 196 774 459 12;
#X obj 113 187 metro_bpm;
#X obj 113 166 tgl 15 0 empty empty empty 17 7 0 10 -262144 -1 -1 0
1;
#X obj 173 116 loadbang;
#X msg 173 140 120;
#X floatatom 173 164 5 0 0 0 - - -;
#X obj 113 213 bng 15 250 50 0 empty empty empty 17 7 0 10 -262144
-1 -1;
#X floatatom 173 212 5 0 0 0 - - -;
#X obj 173 235 s metro_ms;
#X obj 113 236 s beat;
#X obj 94 272 f;
#X floatatom 94 301 5 0 0 0 - - -;
#X obj 142 272 + 1;
#X obj 28 228 s power;
#X obj 94 379 s measure;
#X floatatom 94 352 5 0 0 0 - - -;
#X obj 94 328 / 8;
#N canvas -1163 174 312 323 osc-controller 0;
#X msg 41 159 port \$1;
#X floatatom 41 135 10 0 25000 0 - - -;
#X obj 41 58 loadbang;
#X obj 41 183 iemnet/udpreceive 8000;
#X obj 41 207 osc/unpackOSC;
#X text 87 83 OSC Receive Port;
#X obj 41 237 outlet;
#X msg 215 159 port \$1;
#X floatatom 215 135 10 0 25000 0 - - -;
#X obj 215 183 iemnet/udpreceive 8000;
#X obj 215 207 osc/unpackOSC;
#X text 261 83 OSC Receive Port;
#X obj 215 237 outlet;
#X msg 41 82 8000;
#X msg 215 82 8001;
#X connect 0 0 3 0;
#X connect 1 0 0 0;
#X connect 2 0 13 0;
#X connect 2 0 14 0;
#X connect 3 0 4 0;
#X connect 4 0 6 0;
#X connect 7 0 9 0;
#X connect 8 0 7 0;
#X connect 9 0 10 0;
#X connect 10 0 12 0;
#X connect 13 0 1 0;
#X connect 14 0 8 0;
#X restore 200 19 pd osc-controller;
#X floatatom 316 107 5 0 0 0 - - -;
#X obj 316 58 route /drum_hi_ts /drum_low_ts /set_bpm;
#X obj 496 118 s reset_bpm;
#X obj 212 145 r reset_bpm;
#X obj 496 90 bng 15 250 50 0 empty empty empty 17 7 0 10 -262144 -1
-1;
#X obj 246 306 time_signature;
#X obj 293 230 r metro_ms;
#X obj 246 337 bng 15 250 50 0 empty empty empty 17 7 0 10 -262144
-1 -1;
#X obj 299 337 hradio 15 1 0 12 empty empty empty 0 -8 0 10 -262144
-1 -1 5;
#X obj 246 280 r power;
#X msg 341 280 \$1 8;
#X obj 316 129 s hi_ts;
#X obj 341 252 r hi_ts;
#X obj 503 306 time_signature;
#X obj 550 230 r metro_ms;
#X obj 503 337 bng 15 250 50 0 empty empty empty 17 7 0 10 -262144
-1 -1;
#X obj 557 337 hradio 15 1 0 12 empty empty empty 0 -8 0 10 -262144
-1 -1 0;
#X obj 503 280 r power;
#X msg 598 280 \$1 8;
#X obj 598 252 r low_ts;
#X floatatom 173 85 5 0 0 0 - - -;
#X obj 113 54 route /power /metro;
#X obj 389 307 bng 15 250 50 0 empty empty empty 17 7 0 10 -262144
-1 -1;
#X obj 401 14 MIDI_DrumMachine_JeremyJazz;
#X obj 316 83 change;
#X floatatom 406 107 5 0 0 0 - - -;
#X obj 406 83 change;
#X obj 406 129 s low_ts;
#N canvas -788 217 450 300 play_hi_drums 0;
#X obj 19 15 inlet;
#X obj 64 253 s jj-sbass;
#X obj 172 253 s jj-hbass;
#X obj 94 15 r hi_ts;
#X obj 94 39 t b f;
#X obj 94 63 13;
#X obj 94 88 -;
#X obj 19 124 +;
#X obj 19 162 sel 0 1 2 3 4 5 6 7 8 9 10 11 12;
#X connect 0 0 7 0;
#X connect 3 0 4 0;
#X connect 4 0 5 0;
#X connect 4 1 6 1;
#X connect 5 0 6 0;
#X connect 6 0 7 1;
#X connect 7 0 8 0;
#X connect 8 2 1 0;
#X connect 8 3 2 0;
#X connect 8 6 1 0;
#X connect 8 7 2 0;
#X connect 8 10 1 0;
#X connect 8 11 2 0;
#X restore 293 362 pd play_hi_drums;
#N canvas -957 221 328 300 play_low_drums 0;
#X obj 19 15 inlet;
#X obj 94 39 t b f;
#X obj 94 63 13;
#X obj 94 88 -;
#X obj 19 124 +;
#X obj 19 162 sel 0 1 2 3 4 5 6 7 8 9 10 11 12;
#X obj 94 15 r low_ts;
#X obj 50 240 s jj-snare;
#X obj 158 240 s jj-hihat;
#X connect 0 0 4 0;
#X connect 1 0 2 0;
#X connect 1 1 3 1;
#X connect 2 0 3 0;
#X connect 3 0 4 1;
#X connect 4 0 5 0;
#X connect 5 0 7 0;
#X connect 5 1 8 0;
#X connect 5 2 7 0;
#X connect 5 2 8 0;
#X connect 5 3 8 0;
#X connect 5 6 7 0;
#X connect 5 6 8 0;
#X connect 5 7 8 0;
#X connect 5 10 7 0;
#X connect 5 10 8 0;
#X connect 5 11 8 0;
#X connect 5 12 8 0;
#X connect 6 0 1 0;
#X restore 550 363 pd play_low_drums;
#X connect 0 0 5 0;
#X connect 0 1 6 0;
#X connect 1 0 0 0;
#X connect 1 0 9 1;
#X connect 1 0 12 0;
#X connect 2 0 3 0;
#X connect 3 0 4 0;
#X connect 4 0 0 1;
#X connect 5 0 8 0;
#X connect 5 0 9 0;
#X connect 6 0 7 0;
#X connect 9 0 11 0;
#X connect 9 0 10 0;
#X connect 10 0 15 0;
#X connect 11 0 9 1;
#X connect 14 0 13 0;
#X connect 15 0 14 0;
#X connect 16 0 38 0;
#X connect 16 1 18 0;
#X connect 17 0 28 0;
#X connect 18 0 41 0;
#X connect 18 1 43 0;
#X connect 18 2 21 0;
#X connect 20 0 4 0;
#X connect 21 0 19 0;
#X connect 22 0 24 0;
#X connect 22 1 25 0;
#X connect 22 1 45 0;
#X connect 23 0 22 1;
#X connect 26 0 22 0;
#X connect 27 0 22 2;
#X connect 27 0 39 0;
#X connect 29 0 27 0;
#X connect 30 0 32 0;
#X connect 30 1 33 0;
#X connect 30 1 46 0;
#X connect 31 0 30 1;
#X connect 34 0 30 0;
#X connect 35 0 30 2;
#X connect 36 0 35 0;
#X connect 37 0 4 0;
#X connect 38 0 1 0;
#X connect 38 1 37 0;
#X connect 41 0 17 0;
#X connect 42 0 44 0;
#X connect 43 0 42 0;
