#N canvas 985 204 708 593 12;
#X obj 54 28 adc~, f 5;
#X obj 53 386 s~ aud;
#X obj 418 421 r~ aud;
#X obj 418 520 dac~;
#X obj 54 233 *~;
#X obj 496 343 vsl 15 128 0 1 0 0 empty empty empty 0 -9 0 10 -262144
-1 -1 10300 1;
#X obj 417 474 *~;
#X obj 76 166 hsl 60 15 50 500 0 0 empty empty empty -2 -8 0 10 -262144
-1 -1 1100 1;
#X floatatom 73 186 5 0 0 0 - - -;
#X obj 73 209 osc~;
#X obj 55 110 *~;
#X obj 76 68 hsl 128 15 0 3 0 0 empty empty empty -2 -8 0 10 -262144
-1 -1 1100 1;
#X floatatom 73 88 5 0 0 0 - - -;
#X obj 53 335 *~;
#X obj 75 268 hsl 50 15 50 500 0 0 empty empty empty -2 -8 0 10 -262144
-1 -1 1200 1;
#X floatatom 72 288 5 0 0 0 - - -;
#X obj 72 311 osc~;
#X obj 55 138 clip~ -0.5 0.5;
#X connect 0 0 10 0;
#X connect 2 0 6 0;
#X connect 4 0 13 0;
#X connect 5 0 6 1;
#X connect 6 0 3 1;
#X connect 6 0 3 0;
#X connect 7 0 8 0;
#X connect 8 0 9 0;
#X connect 9 0 4 1;
#X connect 10 0 17 0;
#X connect 11 0 12 0;
#X connect 12 0 10 1;
#X connect 13 0 1 0;
#X connect 14 0 15 0;
#X connect 15 0 16 0;
#X connect 16 0 13 1;
#X connect 17 0 4 0;
